<svg version="1.1" id="Layer_1" xmlns="http://www.w3.org/2000/svg" xmlns:xlink="http://www.w3.org/1999/xlink" x="0px" y="0px"
	 width="100%" viewBox="0 0 512 512" enable-background="new 0 0 512 512" xml:space="preserve">
<path fill="#F20000" opacity="1.000000" stroke="none" 
	d="
M289.293945,512.757874 
	C267.979095,513.000000 246.958206,513.000000 225.468658,513.000000 
	C222.494781,511.033539 219.516571,512.149902 216.783279,511.850708 
	C194.890320,509.453979 174.244293,502.714569 154.112564,494.147064 
	C119.382805,479.366974 89.634102,457.503601 64.518982,429.541656 
	C32.547428,393.946106 12.050114,352.460571 3.056522,305.383514 
	C2.059272,300.163391 2.530430,294.800964 1.242125,289.294006 
	C1.000000,267.645782 1.000000,246.291550 1.000000,224.468658 
	C2.861172,221.843781 1.911492,219.182281 2.157937,216.784439 
	C4.271672,196.218506 10.098048,176.598114 18.357281,157.829376 
	C54.643562,75.370422 116.816826,23.992893 204.690125,3.841714 
	C211.174835,2.354631 217.855743,2.417771 224.706268,1.242076 
	C246.020889,1.000000 267.041779,1.000000 288.531342,1.000000 
	C291.505341,2.966481 294.484375,1.860158 297.216919,2.147470 
	C318.622437,4.398147 338.908661,10.779236 358.493866,19.278717 
	C417.142487,44.730770 460.628784,86.378616 489.277069,143.439194 
	C499.177460,163.158478 505.969330,184.031265 510.433502,205.663635 
	C511.714447,211.870819 511.400146,218.211685 512.757874,224.706039 
	C513.000000,246.020889 513.000000,267.041779 513.000000,288.531342 
	C511.033478,291.505341 512.139465,294.484467 511.852570,297.216980 
	C509.623077,318.453491 503.557220,338.703552 494.880859,358.017792 
	C458.134827,439.817261 395.881622,490.653320 308.332458,510.412354 
	C302.145966,511.808563 295.788330,511.400177 289.293945,512.757874 
z"/>
	d="
M1.000000,289.468658 
	C3.182562,288.457275 2.857904,290.096680 2.988190,291.306610 
	C5.558147,315.173309 12.578217,337.770966 21.878014,359.820465 
	C30.257168,379.687164 41.275131,398.018311 54.559025,414.784180 
	C74.301292,439.701447 97.630226,460.787567 125.157242,477.137421 
	C143.081085,487.783386 161.879059,496.232574 181.753113,502.329620 
	C195.325897,506.493561 209.093857,509.874512 223.311859,511.019287 
	C224.198700,511.090668 224.917313,511.355164 225.169357,512.593262 
	C151.738327,513.000000 78.476593,512.964172 5.215190,513.105103 
	C1.526532,513.112183 0.902595,512.242676 0.908459,508.723145 
	C1.029969,435.794708 1.000000,362.865967 1.000000,289.468658 
z"/>
\<path fill="#FFFEFE" opacity="1.000000" stroke="none" 
	d="
M381.246399,208.709915 
	C386.926208,245.040817 386.433868,280.885529 379.387970,316.497559 
	C376.595154,330.613403 365.766510,337.966797 353.218750,343.051025 
	C343.603394,346.947052 333.318176,346.983032 323.245850,347.789093 
	C273.130249,351.799530 223.032944,351.486481 173.029831,345.998993 
	C160.923447,344.670410 150.505768,339.488190 141.921768,330.598572 
	C134.371292,322.779266 133.566467,312.703522 132.170288,302.881683 
	C127.327690,268.815094 127.866158,234.834183 133.792511,200.890884 
	C135.514160,191.030075 140.350388,183.613174 148.132462,177.829529 
	C155.917633,172.043625 164.693680,168.840149 174.364471,167.819183 
	C223.725815,162.607956 273.144440,162.242386 322.592377,166.187759 
	C332.180786,166.952805 341.942871,167.077408 351.198730,170.262100 
	C369.314758,176.495392 380.250946,188.453644 381.246399,208.709915 
z"/>
<path fill="#F20404" opacity="1.000000" stroke="none" 
	d="
M226.301849,275.999786 
	C226.301895,254.526062 226.300827,233.552383 226.303513,212.578690 
	C226.303818,210.220734 225.670441,207.431763 229.749847,209.955978 
	C254.618622,225.344147 279.561127,240.613174 304.471588,255.934021 
	C304.853210,256.168732 305.140198,256.557281 305.835785,257.222656 
	C299.598969,261.082489 293.590668,264.827454 287.556549,268.530365 
	C268.578430,280.176514 249.594208,291.812744 230.597321,303.428223 
	C229.495407,304.101990 227.989090,305.280060 227.144241,304.962860 
	C225.453537,304.328125 226.357849,302.344604 226.343582,300.968658 
	C226.259018,292.813110 226.301834,284.656250 226.301849,275.999786 
z"/>
</svg>