<svg version="1.1" id="Layer_1" xmlns="http://www.w3.org/2000/svg" xmlns:xlink="http://www.w3.org/1999/xlink" x="0px" y="0px"
	 width="100%" viewBox="0 0 512 512" enable-background="new 0 0 512 512" xml:space="preserve">
<path fill="#0B69C7" opacity="1.000000" stroke="none" 
	d="
M224.704834,1.242203 
	C246.020889,1.000000 267.041779,1.000000 288.531342,1.000000 
	C293.561920,2.868440 298.431702,2.050273 303.143402,2.614340 
	C320.125793,4.647397 336.223114,9.941882 352.081940,16.025089 
	C377.471649,25.764181 400.612396,39.517849 421.412262,56.912170 
	C450.595154,81.316917 474.123779,110.359512 490.582214,144.855316 
	C499.140442,162.792725 505.526733,181.491516 509.949341,200.866394 
	C511.718719,208.617752 511.166962,216.615356 512.757690,224.704376 
	C513.000000,246.020889 513.000000,267.041779 513.000000,288.531342 
	C511.128418,293.566925 511.958862,298.442993 511.387726,303.159302 
	C509.309174,320.324066 503.961884,336.597504 497.765594,352.611969 
	C486.954193,380.554230 471.407867,405.750031 451.515869,428.013824 
	C414.033630,469.965240 367.914825,497.713043 312.792847,510.014038 
	C305.160370,511.717316 297.289398,511.347961 289.295410,512.757751 
	C267.979095,513.000000 246.958206,513.000000 225.468658,513.000000 
	C220.770950,511.138794 216.210327,511.832306 211.813629,511.414368 
	C195.899719,509.901703 180.861221,505.013672 166.023270,499.557648 
	C136.481323,488.694855 109.828896,472.698730 86.356201,451.825256 
	C64.594902,432.473663 46.045219,410.329407 31.645321,384.802094 
	C19.188000,362.718445 10.316833,339.343842 4.435864,314.737000 
	C2.453685,306.443268 2.784117,297.933624 1.242257,289.295471 
	C1.000000,267.645782 1.000000,246.291550 1.000000,224.468658 
	C2.882114,219.783813 2.115818,215.235138 2.633105,210.848648 
	C4.638920,193.839752 9.951323,177.730545 16.052248,161.860428 
	C26.864054,133.736069 42.463787,108.374428 62.466557,85.991768 
	C99.822449,44.191319 145.766891,16.449352 200.694336,4.109221 
	C208.491409,2.357510 216.537994,2.668203 224.704834,1.242203 
z"/>
<path fill="#000000" opacity="1.000000" stroke="none" 
	d="
M513.000000,224.531342 
	C510.812622,225.509369 511.149780,223.872726 511.010681,222.652069 
	C508.213257,198.101120 501.050690,174.845596 491.177734,152.224625 
	C481.912018,130.994934 469.839172,111.529861 455.105713,93.886406 
	C434.679504,69.425842 410.691589,48.992355 382.766693,33.234196 
	C360.641479,20.748854 337.089783,12.174495 312.524506,6.335664 
	C305.595337,4.688698 298.519226,2.873118 291.232513,2.982942 
	C290.221344,2.998182 289.215759,2.930000 288.853455,1.410181 
	C362.261658,1.000000 435.523407,1.035820 508.784790,0.894920 
	C512.473450,0.887826 513.097412,1.757346 513.091553,5.276858 
	C512.970032,78.205315 513.000000,151.134018 513.000000,224.531342 
z"/>
<path fill="#000000" opacity="1.000000" stroke="none" 
	d="
M1.000000,289.468658 
	C3.356509,288.363098 2.848096,290.216492 2.974181,291.366211 
	C5.581707,315.142944 12.569781,337.664276 21.811403,359.649628 
	C30.180017,379.558167 41.185802,397.948761 54.467396,414.740631 
	C74.135262,439.606598 97.495628,460.586090 124.834488,477.036377 
	C148.747803,491.425385 174.406921,501.316925 201.440506,507.646545 
	C208.387436,509.273071 215.491989,510.977448 222.769394,511.014160 
	C223.783218,511.019287 224.787582,511.072479 225.148224,512.591309 
	C151.738327,513.000000 78.476593,512.964172 5.215190,513.105103 
	C1.526532,513.112183 0.902595,512.242676 0.908459,508.723145 
	C1.029969,435.794708 1.000000,362.865967 1.000000,289.468658 
z"/>
<path fill="#000000" opacity="1.000000" stroke="none" 
	d="
M289.468658,513.000000 
	C288.350555,510.642273 290.209412,511.151398 291.354065,511.026337 
	C315.074127,508.434540 337.554260,501.492676 359.486725,492.278076 
	C379.365204,483.926453 397.543427,472.715576 414.539459,459.712952 
	C428.330261,449.162476 440.555389,436.782471 451.984711,423.624115 
	C466.930542,406.417206 479.127869,387.459564 488.949951,366.974060 
	C498.298157,347.476807 504.666962,326.964508 509.063782,305.797333 
	C510.243774,300.116760 509.931824,294.176025 512.590576,288.852600 
	C513.000000,362.261658 512.964172,435.523407 513.105042,508.784790 
	C513.112183,512.473450 512.242676,513.097412 508.723145,513.091553 
	C435.794708,512.970032 362.865967,513.000000 289.468658,513.000000 
z"/>
<path fill="#000000" opacity="1.000000" stroke="none" 
	d="
M224.531342,1.000000 
	C225.643295,3.356180 223.788727,2.846726 222.640884,2.974145 
	C201.535797,5.316965 181.328674,11.057245 161.588516,18.742115 
	C136.787720,28.397102 114.231979,41.957413 93.871887,58.881348 
	C71.307228,77.637794 52.212158,99.566002 36.963615,124.819923 
	C22.524372,148.733505 12.727323,174.443466 6.323183,201.473785 
	C4.754496,208.094833 3.106794,214.853516 2.988393,221.782532 
	C2.971015,222.799515 2.914692,223.796432 1.405400,224.152695 
	C1.000000,151.071487 1.036031,78.142906 0.894796,5.214671 
	C0.887650,1.524596 1.759262,0.902722 5.277360,0.908576 
	C78.205650,1.029919 151.134186,1.000000 224.531342,1.000000 
z"/>
<path fill="#FEFEFF" opacity="1.000000" stroke="none" 
	d="
M277.344757,226.356323 
	C287.401642,216.208420 299.771698,212.342773 313.206268,211.224884 
	C321.362732,210.546173 329.545471,210.718689 337.594971,212.414276 
	C361.325439,217.413010 376.004181,233.408676 381.003876,259.512146 
	C382.920990,269.521362 383.998901,279.611481 384.016632,289.800903 
	C384.065887,318.133789 384.086090,346.466736 384.085388,374.799683 
	C384.085175,382.354980 381.431213,384.978821 373.872559,384.995026 
	C362.206055,385.020050 350.539459,385.024109 338.873016,384.993256 
	C331.581543,384.973999 328.875854,382.337402 328.869904,375.109528 
	C328.849365,350.109924 328.861053,325.110199 328.910553,300.110626 
	C328.926788,291.917877 328.602570,283.773621 325.994141,275.917938 
	C322.680969,265.939606 316.316010,259.311371 305.479095,257.958710 
	C293.772339,256.497437 283.998077,259.767334 277.495850,270.182922 
	C272.328888,278.459656 270.234924,287.682770 270.194977,297.319977 
	C270.088501,322.985870 270.168579,348.652557 270.152527,374.318909 
	C270.147369,382.565399 267.695496,384.988770 259.428864,384.998474 
	C248.262344,385.011566 237.095657,385.036682 225.929337,384.988495 
	C219.077728,384.958923 216.154343,382.113586 216.149643,375.262939 
	C216.114914,324.596893 216.115631,273.930847 216.149246,223.264816 
	C216.153824,216.369064 218.989243,213.513214 225.874344,213.460739 
	C237.540192,213.371811 249.207733,213.368774 260.873505,213.461533 
	C267.539307,213.514526 270.257080,216.275024 270.433929,222.873459 
	C270.521759,226.151840 270.449188,229.434509 270.449188,234.064896 
	C273.260132,230.910767 275.177338,228.759506 277.344757,226.356323 
z"/>
<path fill="#FEFEFF" opacity="1.000000" stroke="none" 
	d="
M137.838028,245.999908 
	C137.839600,238.005447 137.767136,230.510025 137.865784,223.016846 
	C137.947128,216.837463 140.876907,213.604736 146.976349,213.507782 
	C158.797867,213.319839 170.626282,213.324783 182.448181,213.498276 
	C189.019501,213.594711 191.897018,217.048782 191.906036,224.301193 
	C191.936707,248.949600 191.918106,273.598083 191.918091,298.246521 
	C191.918076,323.228058 191.925644,348.209564 191.913513,373.191101 
	C191.909088,382.299042 189.153351,384.994263 179.908691,385.000336 
	C169.416458,385.007263 158.924103,385.029968 148.432007,384.992188 
	C140.843094,384.964844 137.857086,382.011230 137.852463,374.405304 
	C137.826599,331.770172 137.838806,289.135040 137.838028,245.999908 
z"/>
<path fill="#FDFEFF" opacity="1.000000" stroke="none" 
	d="
M192.852600,143.191727 
	C201.687592,156.553604 201.996689,171.109283 193.904037,183.291138 
	C186.141663,194.975830 172.064529,200.897842 158.360550,198.243668 
	C143.989914,195.460373 133.412323,184.954086 130.417221,170.488678 
	C127.280197,155.337875 135.444473,139.213211 149.696167,132.412201 
	C164.689072,125.257477 181.476120,129.354263 192.852600,143.191727 
z"/>
</svg>